#!OML:ASF E:\motion texture\Top Level 1\Subject 1\Session 1\male.ASF
:FULLY-SPECIFIED
:DEGREES
447
root -6.98708 17.8844 3.80982 849.758 -76.3715 -849.844
lowerback 1.08542 3.84859 10.5765
upperback -1.17137 5.24797 3.28901
thorax -1.19289 2.46696 -2.55075
lowerneck -18.8955 -3.93084 -4.80324
upperneck 15.0418 -5.21266 5.86417
head 8.04666 -2.18088 2.0905
rclavicle 1.5704e-014 -3.52843e-014
rhumerus 17.5859 13.3335 -75.4933
rradius 70.8949
rwrist -8.03979
rhand -11.4079 -8.19466
rfingers 7.12502
rthumb 14.6275 -37.6588
lclavicle 1.5704e-014 -3.52843e-014
lhumerus -62.3286 10.6355 58.2
lradius 21.6799
lwrist -29.0428
lhand -5.63613 12.122
lfingers 7.12502
lthumb 20.1821 41.0936
rfemur 9.79525 5.92172 36.2429
rtibia 20.6243
rfoot 344.283 -3.65662
rtoes 1.09491
lfemur -79.2149 12.2834 -10.1976
ltibia 81.8865
lfoot 1097.38 11.3204
ltoes -4.41115
448
root -7.15995 17.8677 3.81334 850.025 -76.3487 -849.807
lowerback 0.745621 3.8851 10.5617
upperback -1.28378 5.257 3.25976
thorax -1.11681 2.47137 -2.55203
lowerneck -18.8956 -3.94666 -4.85588
upperneck 15.0649 -5.23433 5.92807
head 8.05901 -2.18784 2.1177
rclavicle -3.23025e-014 -4.83047e-014
rhumerus 16.9163 13.4104 -75.6098
rradius 70.9627
rwrist -7.97628
rhand -11.4069 -8.21926
rfingers 7.12502
rthumb 14.6285 -37.6833
lclavicle -3.23025e-014 -4.83047e-014
lhumerus -62.3004 10.4771 58.4091
lradius 21.8945
lwrist -28.7173
lhand -5.54687 12.1693
lfingers 7.12502
lthumb 20.2679 41.1318
rfemur 10.0899 6.03297 36.1879
rtibia 20.6004
rfoot 344.261 -3.57517
rtoes 0.302708
lfemur -77.6003 12.3171 -10.009
ltibia 79.6237
lfoot 1099.62 -2.06945
ltoes -4.25933
449
root -7.33532 17.8502 3.81723 850.409 -76.3058 -849.888
lowerback 0.404166 3.92725 10.5436
upperback -1.39685 5.27306 3.23222
thorax -1.04008 2.47914 -2.54943
lowerneck -18.902 -3.96072 -4.89884
upperneck 15.0913 -5.2531 5.97684
head 8.07269 -2.19419 2.13857
rclavicle 7.78366e-014 5.03919e-014
rhumerus 16.1623 13.5277 -75.7411
rradius 71.0377
rwrist -7.91182
rhand -11.4178 -8.24018
rfingers 7.12502
rthumb 14.618 -37.705
lclavicle 7.78366e-014 5.03919e-014
lhumerus -62.2371 10.3412 58.6754
lradius 22.1395
lwrist -28.3756
lhand -5.43263 12.2661
lfingers 7.12502
lthumb 20.3777 41.2169
rfemur 10.3966 6.16636 36.1295
rtibia 20.5725
rfoot 344.258 -3.47846
rtoes -0.474933
lfemur -75.842 12.3856 -9.80624
ltibia 77.4617
lfoot 1100.69 -2.7883
ltoes -4.00262
450
root -7.51344 17.832 3.82168 850.923 -76.2474 -850.1
lowerback 0.0642719 3.97442 10.5216
upperback -1.51258 5.2961 3.20239
thorax -0.96634 2.4901 -2.54699
lowerneck -18.9135 -3.9712 -4.92553
upperneck 15.1205 -5.26733 6.00552
head 8.0869 -2.1993 2.1506
rclavicle 3.01904e-015 1.97791e-014
rhumerus 15.3165 13.6827 -75.8969
rradius 71.1164
rwrist -7.83497
rhand -11.4398 -8.25225
rfingers 7.12502
rthumb 14.5968 -37.7186
lclavicle 3.01904e-015 1.97791e-014
lhumerus -62.149 10.2245 58.9894
lradius 22.4058
lwrist -28.0092
lhand -5.36842 12.3299
lfingers 7.12502
lthumb 20.4394 41.2742
rfemur 10.7192 6.32104 36.0589
rtibia 20.5365
rfoot 344.28 -3.36563
rtoes -1.24754
lfemur -73.9395 12.4818 -9.59705
ltibia 75.215
lfoot 1101.69 -3.13586
ltoes -3.62762
451
root -7.69482 17.813 3.82682 851.576 -76.1768 -850.456
lowerback -0.277481 4.02679 10.4919
upperback -1.63318 5.32615 3.16824
thorax -0.896083 2.50422 -2.54456
lowerneck -18.9133 -3.97882 -4.94527
upperneck 15.1432 -5.27804 6.02586
head 8.09626 -2.20344 2.15928
rclavicle 2.41958e-014 3.97569e-014
rhumerus 14.3755 13.8743 -76.0801
rradius 71.1918
rwrist -7.7453
rhand -11.471 -8.25004
rfingers 7.12502
rthumb 14.5668 -37.7186
lclavicle 2.41958e-014 3.97569e-014
lhumerus -62.0432 10.131 59.3373
lradius 22.6877
lwrist -27.6429
lhand -5.36383 12.3426
lfingers 7.12502
lthumb 20.4438 41.2864
rfemur 11.0568 6.49001 35.9656
rtibia 20.4934
rfoot 344.328 -3.2293
rtoes -2.00347
lfemur -71.8974 12.5963 -9.38726
ltibia 72.8916
lfoot 1102.6 -3.24033
ltoes -3.13683
